<svg xmlns:xlink="http://www.w3.org/1999/xlink" xmlns="http://www.w3.org/2000/svg" viewBox="0 0 300 76.71264008581804" preserveAspectRatio="xMidYMid meet" class="css-grg60t" id="ggbfadhg" width="300"  height="76.71264008581804" ><defs id="SvgjsDefs1173"></defs><g id="SvgjsG1174" featurekey="S6ay6y-0" transform="matrix(0.05209109137099816,0,0,0.05209109137099816,0.21823378166412022,0.21854588329675181)" fill="#000000"><path xmlns="http://www.w3.org/2000/svg" d="M893.3,160.7c0,88.7-72,160.9-160.7,161.2v-0.5h-0.5v-0.5h-0.5v0.5h0.5v0.5h0.5v0h-0.5c-88.9,0-161.2-72.3-161.2-161.2  c0-88.9,72.3-161.2,161.2-161.2S893.3,71.8,893.3,160.7z"></path><circle xmlns="http://www.w3.org/2000/svg" cx="160.7" cy="160.7" r="72"></circle><ellipse xmlns="http://www.w3.org/2000/svg" transform="matrix(0.7071 -0.7071 0.7071 0.7071 4.0354 331.1821)" cx="401.8" cy="160.7" rx="116.6" ry="116.6"></ellipse><rect xmlns="http://www.w3.org/2000/svg" x="731.6" y="320.9" width="0.5" height="0.5"></rect><polygon xmlns="http://www.w3.org/2000/svg" points="732.1,321.4 732.1,320.9 731.6,320.9 731.6,321.4 732.1,321.4 732.1,321.9 732.6,321.9 732.6,321.4 "></polygon><circle xmlns="http://www.w3.org/2000/svg" cx="1062.5" cy="160.7" r="116.6"></circle><ellipse xmlns="http://www.w3.org/2000/svg" transform="matrix(0.9871 -0.1602 0.1602 0.9871 -8.9104 210.8861)" cx="1303.6" cy="160.7" rx="71.9" ry="71.9"></ellipse><ellipse xmlns="http://www.w3.org/2000/svg" transform="matrix(0.7071 -0.7071 0.7071 0.7071 -237.0375 231.3207)" cx="160.7" cy="401.8" rx="116.6" ry="116.6"></ellipse><ellipse xmlns="http://www.w3.org/2000/svg" transform="matrix(0.2298 -0.9732 0.9732 0.2298 -90.6223 778.3138)" cx="446.4" cy="446.4" rx="71.9" ry="71.9"></ellipse><ellipse xmlns="http://www.w3.org/2000/svg" transform="matrix(0.7071 -0.7071 0.7071 0.7071 -132.8 661.5322)" cx="732.1" cy="491.1" rx="116.6" ry="116.6"></ellipse><ellipse xmlns="http://www.w3.org/2000/svg" transform="matrix(0.1602 -0.9871 0.9871 0.1602 414.154 1379.5999)" cx="1017.8" cy="446.4" rx="71.9" ry="72"></ellipse><circle xmlns="http://www.w3.org/2000/svg" cx="1303.6" cy="401.8" r="116.6"></circle><rect xmlns="http://www.w3.org/2000/svg" x="160.2" y="892.4" width="0.5" height="0.5"></rect><path xmlns="http://www.w3.org/2000/svg" d="M321.9,732.1c0,88.7-72,160.9-160.7,161.2v-0.5h-0.5v-0.5h-0.5v0.5h0.5v0.5h0.5v0h-0.5C71.8,893.4-0.5,821-0.5,732.1  c0-88.9,72.3-161.2,161.2-161.2S321.9,643.2,321.9,732.1z"></path><polygon xmlns="http://www.w3.org/2000/svg" points="160.7,892.8 160.7,892.4 160.2,892.4 160.2,892.9 160.7,892.9 160.7,893.3 161.2,893.3 161.2,892.8 "></polygon><ellipse xmlns="http://www.w3.org/2000/svg" transform="matrix(0.2298 -0.9732 0.9732 0.2298 -334.3244 1041.8427)" cx="491" cy="732.1" rx="116.6" ry="116.6"></ellipse><ellipse xmlns="http://www.w3.org/2000/svg" transform="matrix(0.1602 -0.9871 0.9871 0.1602 -107.7927 1337.5253)" cx="732.1" cy="732.1" rx="71.9" ry="71.9"></ellipse><ellipse xmlns="http://www.w3.org/2000/svg" transform="matrix(0.7071 -0.7071 0.7071 0.7071 -232.6544 902.6021)" cx="973.2" cy="732.1" rx="116.6" ry="116.6"></ellipse><ellipse xmlns="http://www.w3.org/2000/svg" transform="matrix(0.7071 -0.7071 0.7071 0.7071 -135.9015 1136.2052)" cx="1303.6" cy="732.2" rx="161.2" ry="161.2"></ellipse><circle xmlns="http://www.w3.org/2000/svg" cx="160.7" cy="1062.5" r="116.6"></circle><circle xmlns="http://www.w3.org/2000/svg" cx="446.4" cy="1017.8" r="71.9"></circle><path xmlns="http://www.w3.org/2000/svg" d="M848.7,973.2c0,64.3-52.3,116.5-116.6,116.5c-64.3,0-116.6-52.3-116.6-116.5c0-64.3,52.3-116.6,116.6-116.6  S848.7,908.9,848.7,973.2z"></path><circle xmlns="http://www.w3.org/2000/svg" cx="1017.8" cy="1017.8" r="72"></circle><circle xmlns="http://www.w3.org/2000/svg" cx="1303.6" cy="1062.5" r="116.6"></circle><circle xmlns="http://www.w3.org/2000/svg" cx="160.7" cy="1303.5" r="72"></circle><ellipse xmlns="http://www.w3.org/2000/svg" transform="matrix(0.7071 -0.7071 0.7071 0.7071 -804.0676 665.9094)" cx="401.8" cy="1303.6" rx="116.6" ry="116.6"></ellipse><circle xmlns="http://www.w3.org/2000/svg" cx="732.1" cy="1303.6" r="161.2"></circle><circle xmlns="http://www.w3.org/2000/svg" cx="1062.5" cy="1303.5" r="116.6"></circle><ellipse xmlns="http://www.w3.org/2000/svg" transform="matrix(0.7071 -0.7071 0.7071 0.7071 -539.9423 1303.5642)" cx="1303.6" cy="1303.6" rx="71.9" ry="71.9"></ellipse></g><g id="SvgjsG1175" featurekey="j5pGhi-0" transform="matrix(4.671526603050595,0,0,4.671526603050595,91.83417137757945,-17.442307820820623)" fill="#000000"><path d="M1.748 4.941000000000001 l7.9785 0 l0 1.4258 l-6.5332 0 l0 4.5313 l3.877 0 l0 1.4258 l-3.877 0 l0 7.0996 l-1.4453 0 l0 -14.482 z M12.011759375 4.59 l1.3867 0 l0 14.854 l-1.3867 0 l0 -14.854 z M21.308596875 8.203 q2.470703125 0 4.1015625 1.787109375 q1.474609375 1.640625 1.474609375 3.876953125 t-1.5625 3.9111 t-4.0137 1.6748 q-2.4609375 0 -4.018554688 -1.674804688 t-1.5576 -3.9111 q0 -2.2265625 1.474609375 -3.8671875 q1.630859375 -1.796875 4.1015625 -1.796875 z M21.308596875 9.551 q-1.708984375 0 -2.939453125 1.26953125 t-1.2305 3.0664 q0 1.162109375 0.5615234375 2.172851563 t1.5186 1.5527 t2.0898 0.54199 q1.15234375 0 2.104492188 -0.5419921875 t1.5088 -1.5527 t0.55664 -2.1729 q0 -1.796875 -1.23046875 -3.06640625 t-2.9395 -1.2695 z M27.978516 8.75 l1.416 0 l3.2813 7.7832 l3.4375 -7.7832 l0.24414 0 l3.418 7.7832 l3.3398 -7.7832 l1.4453 0 l-4.6484 10.713 l-0.27344 0 l-3.3984 -7.666 l-3.4375 7.666 l-0.25391 0 z"></path></g></svg>